<svg width="177" height="49" viewBox="0 0 177 49" fill="none" xmlns="http://www.w3.org/2000/svg">
<path d="M3.41415 19.0311C3.39709 19.6304 3.53679 20.2238 3.8192 20.7514C4.10161 21.279 4.51677 21.7223 5.02292 22.0366C6.21818 22.8151 7.54512 23.3652 8.93757 23.6596C10.4868 24.0203 12.03 24.429 13.5672 24.8618C15.0341 25.2742 16.377 26.0466 17.4759 27.11C18.0159 27.6622 18.437 28.321 18.7128 29.0451C18.9886 29.7691 19.1132 30.5428 19.0787 31.3178C19.0956 32.3383 18.8722 33.3483 18.4267 34.2648C17.9813 35.1812 17.3267 35.978 16.5166 36.5895C14.8125 37.972 12.5781 38.6613 9.81345 38.6573C7.63154 38.7279 5.47268 38.1891 3.57503 37.1004C1.9481 36.1656 0.68671 34.698 0 32.9407L2.22248 31.6484C2.70387 33.0522 3.66775 34.2358 4.9395 34.9845C6.43045 35.829 8.12242 36.2449 9.83133 36.1867C11.5095 36.2478 13.168 35.8065 14.598 34.9184C15.1996 34.5381 15.6911 34.0043 16.0227 33.3711C16.3543 32.7378 16.5145 32.0274 16.4868 31.3117C16.4956 30.7134 16.3543 30.1225 16.0762 29.5939C15.7981 29.0653 15.3921 28.6162 14.896 28.2882C13.7017 27.4786 12.3648 26.9072 10.9575 26.6051C9.40829 26.2444 7.86506 25.8436 6.3278 25.4028C4.86356 24.9967 3.52108 24.2328 2.4191 23.1787C1.88019 22.6407 1.4591 21.9947 1.18302 21.2824C0.906942 20.57 0.782013 19.8072 0.816298 19.0431C0.80971 18.0412 1.02888 17.051 1.45724 16.1471C1.88561 15.2432 2.51197 14.4493 3.28903 13.8255C5.07388 12.3597 7.32938 11.6048 9.62875 11.7035C11.5229 11.6594 13.3925 12.1419 15.033 13.0981C16.5205 13.9753 17.7043 15.2934 18.4233 16.8731L16.2485 18.1174C15.7553 16.8662 14.8393 15.8314 13.6626 15.196C12.4263 14.5154 11.037 14.1676 9.62875 14.1861C8.05076 14.1303 6.49738 14.5922 5.20167 15.5026C4.63939 15.8974 4.18218 16.4258 3.87042 17.0412C3.55866 17.6567 3.40195 18.3401 3.41415 19.0311Z" fill="#828282"/>
<path d="M24.4771 5.40998C24.0899 5.7911 23.5703 6.00443 23.0293 6.00443C22.4882 6.00443 21.9686 5.7911 21.5814 5.40998C21.3852 5.22039 21.2308 4.99129 21.1282 4.73757C21.0255 4.48384 20.9769 4.21117 20.9855 3.93726C20.9811 3.67193 21.0319 3.40861 21.1345 3.16427C21.2371 2.91993 21.3893 2.7 21.5814 2.51864C21.9686 2.13752 22.4882 1.92419 23.0293 1.92419C23.5703 1.92419 24.0899 2.13752 24.4771 2.51864C24.6752 2.69682 24.8334 2.91546 24.9413 3.16004C25.0491 3.40463 25.1042 3.66956 25.1028 3.93726C25.1088 4.21357 25.056 4.48797 24.9481 4.742C24.8402 4.99602 24.6796 5.22379 24.4771 5.40998ZM21.7363 38.1104V12.2626H24.3222V38.1104H21.7363Z" fill="#828282"/>
<path d="M42.1795 14.7933H34.4693V31.6244C34.4693 33.1071 34.7454 34.1751 35.2975 34.8283C35.6225 35.1776 36.0147 35.4564 36.4501 35.6476C36.8855 35.8389 37.355 35.9384 37.8299 35.9403C39.2806 36.023 40.7358 35.9807 42.1795 35.8141V38.1103C38.6879 38.6273 36.092 38.3849 34.3919 37.383C32.6917 36.3812 31.8377 34.4516 31.8298 31.5943V14.7933H26.1335V12.2626H31.8298V5.8007L34.4693 5.02527V12.2386H42.1795V14.7933Z" fill="#828282"/>
<path d="M55.1211 11.6916C56.8592 11.6349 58.5882 11.9672 60.184 12.6646C61.7798 13.362 63.2027 14.4071 64.3506 15.7251C66.7006 18.3407 67.9784 21.759 67.9256 25.2887C67.9256 25.427 67.9256 25.6314 67.9256 25.8898C67.9256 26.1483 67.9256 26.3767 67.9256 26.491H44.4019C44.6207 29.197 45.8752 31.7108 47.8995 33.4999C49.9766 35.2957 52.643 36.2452 55.3773 36.1628C57.268 36.2048 59.1382 35.76 60.8113 34.8704C62.281 34.1004 63.5072 32.93 64.3506 31.4922L66.6267 32.8387C65.5272 34.6572 63.9493 36.1325 62.0685 37.1005C59.9898 38.1786 57.6784 38.7197 55.3415 38.6754C51.3693 38.6754 48.11 37.4091 45.5638 34.8764C43.0176 32.3438 41.7326 29.1138 41.7087 25.1865C41.6623 23.4113 41.9707 21.6448 42.6156 19.9923C43.2605 18.3399 44.2288 16.8355 45.4625 15.5688C47.965 12.984 51.1846 11.6916 55.1211 11.6916ZM55.1211 14.1742C52.4102 14.089 49.773 15.0722 47.7684 16.9153C45.7947 18.758 44.5909 21.29 44.4019 23.9963H65.2086C64.9345 20.9307 63.8402 18.5262 61.9255 16.783C60.0708 15.0687 57.6362 14.1353 55.1211 14.1742Z" fill="#828282"/>
<path d="M93.0699 11.89H97.5208V36.6677C97.5208 40.4988 96.2278 43.4723 93.6419 45.5882C91.0061 47.7267 87.7043 48.8533 84.323 48.7681C81.7294 48.8366 79.1573 48.2781 76.8213 47.1391C74.7853 46.1236 73.1176 44.4874 72.0546 42.4624L75.9872 40.2383C77.3973 43.1317 80.2097 44.5784 84.4243 44.5784C87.1174 44.5784 89.2307 43.8731 90.764 42.4624C92.2973 41.0518 93.0659 39.1203 93.0699 36.6677V33.001C90.7938 36.4473 87.5524 38.1705 83.3458 38.1705C81.5991 38.204 79.8645 37.872 78.2513 37.1954C76.6382 36.5188 75.1815 35.5122 73.9732 34.2393C72.7251 32.9847 71.7424 31.4875 71.0849 29.8384C70.4273 28.1893 70.1086 26.4226 70.148 24.6456C70.1111 22.8778 70.4313 21.1209 71.0889 19.4819C71.7466 17.843 72.7279 16.3561 73.9732 15.112C75.1853 13.8457 76.6432 12.8451 78.2559 12.1729C79.8685 11.5006 81.6012 11.171 83.3458 11.2047C87.5882 11.2047 90.8295 12.9119 93.0699 16.3262V11.89ZM77.2861 31.2217C79.0619 32.9165 81.4137 33.8609 83.8582 33.8609C86.3027 33.8609 88.6545 32.9165 90.4303 31.2217C91.2965 30.3688 91.9782 29.3442 92.4325 28.2124C92.8868 27.0806 93.1038 25.8662 93.0699 24.6456C93.0987 23.4355 92.8791 22.2324 92.4248 21.1121C91.9706 19.9918 91.2915 18.9784 90.4303 18.1355C88.6545 16.4407 86.3027 15.4963 83.8582 15.4963C81.4137 15.4963 79.0619 16.4407 77.2861 18.1355C76.4261 18.9792 75.7478 19.9928 75.2936 21.1129C74.8394 22.2331 74.6192 23.4357 74.6465 24.6456C74.614 25.866 74.8317 27.08 75.2859 28.2116C75.7401 29.3432 76.4211 30.368 77.2861 31.2217Z" fill="#1E94E6"/>
<path d="M100.989 37.7377V0H105.493V37.7377H100.989Z" fill="#1E94E6"/>
<path d="M109.259 37.7376V11.8899H113.763V37.7376H109.259Z" fill="#1E94E6"/>
<path d="M138.461 1.55078H142.96V37.7376H138.461V33.2894C136.217 36.7037 132.963 38.4108 128.701 38.4108C126.969 38.4365 125.251 38.098 123.656 37.4171C122.061 36.7361 120.624 35.7275 119.436 34.4555C118.192 33.1926 117.213 31.6904 116.556 30.0383C115.899 28.3861 115.577 26.6176 115.611 24.8378C115.577 23.0579 115.899 21.2894 116.556 19.6373C117.213 17.9851 118.192 16.483 119.436 15.22C120.621 13.9411 122.056 12.9247 123.651 12.2355C125.246 11.5463 126.966 11.1993 128.701 11.2166C132.979 11.2166 136.241 12.9238 138.485 16.3381L138.461 1.55078ZM129.249 34.0648C130.463 34.0925 131.67 33.8725 132.797 33.418C133.924 32.9634 134.949 32.2837 135.809 31.4197C136.67 30.5556 137.348 29.525 137.804 28.3899C138.259 27.2547 138.483 26.0383 138.461 24.8137C138.461 22.3554 137.493 19.9978 135.77 18.2595C134.047 16.5212 131.71 15.5446 129.273 15.5446C126.836 15.5446 124.499 16.5212 122.776 18.2595C121.053 19.9978 120.085 22.3554 120.085 24.8137C120.064 26.0341 120.286 27.2465 120.738 28.3784C121.191 29.5103 121.865 30.5387 122.721 31.402C123.576 32.2654 124.595 32.9462 125.716 33.4037C126.838 33.8611 128.04 34.086 129.249 34.0648Z" fill="#1E94E6"/>
<path d="M149.585 26.8817C149.928 29.0166 151.066 30.9387 152.767 32.2556C154.559 33.5729 156.736 34.2478 158.952 34.1732C162.372 34.1732 164.857 32.9148 166.406 30.3982L170.237 32.5682C167.719 36.4634 163.923 38.411 158.85 38.411C154.743 38.411 151.404 37.1266 148.834 34.5579C147.563 33.2879 146.564 31.7673 145.901 30.0909C145.238 28.4144 144.924 26.6181 144.979 24.8139C144.926 23.0204 145.234 21.2347 145.883 19.5642C146.532 17.8938 147.51 16.3731 148.757 15.0939C151.275 12.5092 154.537 11.2168 158.541 11.2168C160.285 11.1603 162.021 11.4899 163.626 12.1826C165.231 12.8753 166.666 13.9141 167.83 15.2262C169.215 16.796 170.241 18.6535 170.836 20.6676C171.431 22.6817 171.581 24.803 171.274 26.8817H149.585ZM158.523 15.4606C156.347 15.3815 154.218 16.1061 152.535 17.4984C150.93 18.8961 149.882 20.8331 149.585 22.9504H166.864C166.489 20.5039 165.518 18.6465 163.969 17.3721C162.442 16.104 160.518 15.4244 158.541 15.4546L158.523 15.4606Z" fill="#1E94E6"/>
<path d="M118.901 0.958862L113.847 6.45287L112.786 8.86638L110.028 5.65422L118.901 0.958862Z" fill="#2876AC"/>
<path d="M118.91 0.958862L110.037 5.663H106L118.91 0.958862Z" fill="#1E94E6"/>
<path d="M118.91 0.950195L116.639 8.76117L113.847 6.44421L118.91 0.950195Z" fill="#1E94E6"/>
<path d="M174.628 37.347C175.698 37.347 176.565 36.4724 176.565 35.3934C176.565 34.3145 175.698 33.4398 174.628 33.4398C173.559 33.4398 172.692 34.3145 172.692 35.3934C172.692 36.4724 173.559 37.347 174.628 37.347Z" fill="#1E94E6"/>
</svg>
